<?xml version="1.0" standalone="no"?>
<svg xmlns="http://www.w3.org/2000/svg" width="2000" height="2000" viewBox="0 0 2000 2000"><defs><clipPath id="clip-path-dot-color"><circle cx="132" cy="690" r="31" transform="rotate(0,132,690)"/><circle cx="132" cy="752" r="31" transform="rotate(0,132,752)"/><circle cx="132" cy="938" r="31" transform="rotate(0,132,938)"/><circle cx="132" cy="1000" r="31" transform="rotate(0,132,1000)"/><circle cx="132" cy="1124" r="31" transform="rotate(0,132,1124)"/><circle cx="132" cy="1186" r="31" transform="rotate(0,132,1186)"/><circle cx="194" cy="628" r="31" transform="rotate(0,194,628)"/><circle cx="194" cy="752" r="31" transform="rotate(0,194,752)"/><circle cx="194" cy="814" r="31" transform="rotate(0,194,814)"/><circle cx="194" cy="938" r="31" transform="rotate(0,194,938)"/><circle cx="194" cy="1000" r="31" transform="rotate(0,194,1000)"/><circle cx="194" cy="1186" r="31" transform="rotate(0,194,1186)"/><circle cx="194" cy="1310" r="31" transform="rotate(0,194,1310)"/><circle cx="256" cy="690" r="31" transform="rotate(0,256,690)"/><circle cx="256" cy="752" r="31" transform="rotate(0,256,752)"/><circle cx="256" cy="1000" r="31" transform="rotate(0,256,1000)"/><circle cx="256" cy="1062" r="31" transform="rotate(0,256,1062)"/><circle cx="256" cy="1124" r="31" transform="rotate(0,256,1124)"/><circle cx="256" cy="1310" r="31" transform="rotate(0,256,1310)"/><circle cx="318" cy="628" r="31" transform="rotate(0,318,628)"/><circle cx="318" cy="690" r="31" transform="rotate(0,318,690)"/><circle cx="318" cy="752" r="31" transform="rotate(0,318,752)"/><circle cx="318" cy="814" r="31" transform="rotate(0,318,814)"/><circle cx="318" cy="938" r="31" transform="rotate(0,318,938)"/><circle cx="318" cy="1000" r="31" transform="rotate(0,318,1000)"/><circle cx="318" cy="1062" r="31" transform="rotate(0,318,1062)"/><circle cx="318" cy="1186" r="31" transform="rotate(0,318,1186)"/><circle cx="318" cy="1248" r="31" transform="rotate(0,318,1248)"/><circle cx="318" cy="1310" r="31" transform="rotate(0,318,1310)"/><circle cx="380" cy="628" r="31" transform="rotate(0,380,628)"/><circle cx="380" cy="876" r="31" transform="rotate(0,380,876)"/><circle cx="380" cy="938" r="31" transform="rotate(0,380,938)"/><circle cx="380" cy="1062" r="31" transform="rotate(0,380,1062)"/><circle cx="380" cy="1124" r="31" transform="rotate(0,380,1124)"/><circle cx="380" cy="1248" r="31" transform="rotate(0,380,1248)"/><circle cx="380" cy="1310" r="31" transform="rotate(0,380,1310)"/><circle cx="442" cy="1062" r="31" transform="rotate(0,442,1062)"/><circle cx="442" cy="1248" r="31" transform="rotate(0,442,1248)"/><circle cx="442" cy="1372" r="31" transform="rotate(0,442,1372)"/><circle cx="504" cy="628" r="31" transform="rotate(0,504,628)"/><circle cx="504" cy="752" r="31" transform="rotate(0,504,752)"/><circle cx="504" cy="876" r="31" transform="rotate(0,504,876)"/><circle cx="504" cy="1000" r="31" transform="rotate(0,504,1000)"/><circle cx="504" cy="1124" r="31" transform="rotate(0,504,1124)"/><circle cx="504" cy="1248" r="31" transform="rotate(0,504,1248)"/><circle cx="504" cy="1372" r="31" transform="rotate(0,504,1372)"/><circle cx="566" cy="628" r="31" transform="rotate(0,566,628)"/><circle cx="566" cy="690" r="31" transform="rotate(0,566,690)"/><circle cx="566" cy="752" r="31" transform="rotate(0,566,752)"/><circle cx="566" cy="814" r="31" transform="rotate(0,566,814)"/><circle cx="566" cy="1000" r="31" transform="rotate(0,566,1000)"/><circle cx="566" cy="1248" r="31" transform="rotate(0,566,1248)"/><circle cx="628" cy="194" r="31" transform="rotate(0,628,194)"/><circle cx="628" cy="318" r="31" transform="rotate(0,628,318)"/><circle cx="628" cy="380" r="31" transform="rotate(0,628,380)"/><circle cx="628" cy="442" r="31" transform="rotate(0,628,442)"/><circle cx="628" cy="504" r="31" transform="rotate(0,628,504)"/><circle cx="628" cy="628" r="31" transform="rotate(0,628,628)"/><circle cx="628" cy="876" r="31" transform="rotate(0,628,876)"/><circle cx="628" cy="938" r="31" transform="rotate(0,628,938)"/><circle cx="628" cy="1000" r="31" transform="rotate(0,628,1000)"/><circle cx="628" cy="1062" r="31" transform="rotate(0,628,1062)"/><circle cx="628" cy="1124" r="31" transform="rotate(0,628,1124)"/><circle cx="628" cy="1186" r="31" transform="rotate(0,628,1186)"/><circle cx="628" cy="1248" r="31" transform="rotate(0,628,1248)"/><circle cx="628" cy="1310" r="31" transform="rotate(0,628,1310)"/><circle cx="628" cy="1372" r="31" transform="rotate(0,628,1372)"/><circle cx="628" cy="1434" r="31" transform="rotate(0,628,1434)"/><circle cx="628" cy="1496" r="31" transform="rotate(0,628,1496)"/><circle cx="628" cy="1620" r="31" transform="rotate(0,628,1620)"/><circle cx="628" cy="1682" r="31" transform="rotate(0,628,1682)"/><circle cx="628" cy="1806" r="31" transform="rotate(0,628,1806)"/><circle cx="690" cy="194" r="31" transform="rotate(0,690,194)"/><circle cx="690" cy="318" r="31" transform="rotate(0,690,318)"/><circle cx="690" cy="442" r="31" transform="rotate(0,690,442)"/><circle cx="690" cy="566" r="31" transform="rotate(0,690,566)"/><circle cx="690" cy="690" r="31" transform="rotate(0,690,690)"/><circle cx="690" cy="814" r="31" transform="rotate(0,690,814)"/><circle cx="690" cy="1000" r="31" transform="rotate(0,690,1000)"/><circle cx="690" cy="1062" r="31" transform="rotate(0,690,1062)"/><circle cx="690" cy="1186" r="31" transform="rotate(0,690,1186)"/><circle cx="690" cy="1434" r="31" transform="rotate(0,690,1434)"/><circle cx="690" cy="1496" r="31" transform="rotate(0,690,1496)"/><circle cx="690" cy="1558" r="31" transform="rotate(0,690,1558)"/><circle cx="690" cy="1620" r="31" transform="rotate(0,690,1620)"/><circle cx="690" cy="1744" r="31" transform="rotate(0,690,1744)"/><circle cx="690" cy="1806" r="31" transform="rotate(0,690,1806)"/><circle cx="752" cy="132" r="31" transform="rotate(0,752,132)"/><circle cx="752" cy="194" r="31" transform="rotate(0,752,194)"/><circle cx="752" cy="256" r="31" transform="rotate(0,752,256)"/><circle cx="752" cy="380" r="31" transform="rotate(0,752,380)"/><circle cx="752" cy="442" r="31" transform="rotate(0,752,442)"/><circle cx="752" cy="504" r="31" transform="rotate(0,752,504)"/><circle cx="752" cy="566" r="31" transform="rotate(0,752,566)"/><circle cx="752" cy="814" r="31" transform="rotate(0,752,814)"/><circle cx="752" cy="1000" r="31" transform="rotate(0,752,1000)"/><circle cx="752" cy="1062" r="31" transform="rotate(0,752,1062)"/><circle cx="752" cy="1434" r="31" transform="rotate(0,752,1434)"/><circle cx="752" cy="1496" r="31" transform="rotate(0,752,1496)"/><circle cx="752" cy="1558" r="31" transform="rotate(0,752,1558)"/><circle cx="752" cy="1682" r="31" transform="rotate(0,752,1682)"/><circle cx="814" cy="132" r="31" transform="rotate(0,814,132)"/><circle cx="814" cy="442" r="31" transform="rotate(0,814,442)"/><circle cx="814" cy="566" r="31" transform="rotate(0,814,566)"/><circle cx="814" cy="628" r="31" transform="rotate(0,814,628)"/><circle cx="814" cy="752" r="31" transform="rotate(0,814,752)"/><circle cx="814" cy="814" r="31" transform="rotate(0,814,814)"/><circle cx="814" cy="876" r="31" transform="rotate(0,814,876)"/><circle cx="814" cy="938" r="31" transform="rotate(0,814,938)"/><circle cx="814" cy="1000" r="31" transform="rotate(0,814,1000)"/><circle cx="814" cy="1124" r="31" transform="rotate(0,814,1124)"/><circle cx="814" cy="1186" r="31" transform="rotate(0,814,1186)"/><circle cx="814" cy="1248" r="31" transform="rotate(0,814,1248)"/><circle cx="814" cy="1558" r="31" transform="rotate(0,814,1558)"/><circle cx="814" cy="1682" r="31" transform="rotate(0,814,1682)"/><circle cx="814" cy="1868" r="31" transform="rotate(0,814,1868)"/><circle cx="876" cy="132" r="31" transform="rotate(0,876,132)"/><circle cx="876" cy="442" r="31" transform="rotate(0,876,442)"/><circle cx="876" cy="504" r="31" transform="rotate(0,876,504)"/><circle cx="876" cy="566" r="31" transform="rotate(0,876,566)"/><circle cx="876" cy="876" r="31" transform="rotate(0,876,876)"/><circle cx="876" cy="1124" r="31" transform="rotate(0,876,1124)"/><circle cx="876" cy="1310" r="31" transform="rotate(0,876,1310)"/><circle cx="876" cy="1434" r="31" transform="rotate(0,876,1434)"/><circle cx="876" cy="1496" r="31" transform="rotate(0,876,1496)"/><circle cx="876" cy="1682" r="31" transform="rotate(0,876,1682)"/><circle cx="876" cy="1806" r="31" transform="rotate(0,876,1806)"/><circle cx="938" cy="132" r="31" transform="rotate(0,938,132)"/><circle cx="938" cy="256" r="31" transform="rotate(0,938,256)"/><circle cx="938" cy="318" r="31" transform="rotate(0,938,318)"/><circle cx="938" cy="380" r="31" transform="rotate(0,938,380)"/><circle cx="938" cy="442" r="31" transform="rotate(0,938,442)"/><circle cx="938" cy="876" r="31" transform="rotate(0,938,876)"/><circle cx="938" cy="938" r="31" transform="rotate(0,938,938)"/><circle cx="938" cy="1000" r="31" transform="rotate(0,938,1000)"/><circle cx="938" cy="1496" r="31" transform="rotate(0,938,1496)"/><circle cx="938" cy="1620" r="31" transform="rotate(0,938,1620)"/><circle cx="938" cy="1744" r="31" transform="rotate(0,938,1744)"/><circle cx="938" cy="1868" r="31" transform="rotate(0,938,1868)"/><circle cx="1000" cy="132" r="31" transform="rotate(0,1000,132)"/><circle cx="1000" cy="194" r="31" transform="rotate(0,1000,194)"/><circle cx="1000" cy="318" r="31" transform="rotate(0,1000,318)"/><circle cx="1000" cy="380" r="31" transform="rotate(0,1000,380)"/><circle cx="1000" cy="442" r="31" transform="rotate(0,1000,442)"/><circle cx="1000" cy="504" r="31" transform="rotate(0,1000,504)"/><circle cx="1000" cy="566" r="31" transform="rotate(0,1000,566)"/><circle cx="1000" cy="628" r="31" transform="rotate(0,1000,628)"/><circle cx="1000" cy="814" r="31" transform="rotate(0,1000,814)"/><circle cx="1000" cy="876" r="31" transform="rotate(0,1000,876)"/><circle cx="1000" cy="1062" r="31" transform="rotate(0,1000,1062)"/><circle cx="1000" cy="1186" r="31" transform="rotate(0,1000,1186)"/><circle cx="1000" cy="1310" r="31" transform="rotate(0,1000,1310)"/><circle cx="1000" cy="1372" r="31" transform="rotate(0,1000,1372)"/><circle cx="1000" cy="1496" r="31" transform="rotate(0,1000,1496)"/><circle cx="1000" cy="1558" r="31" transform="rotate(0,1000,1558)"/><circle cx="1000" cy="1682" r="31" transform="rotate(0,1000,1682)"/><circle cx="1000" cy="1868" r="31" transform="rotate(0,1000,1868)"/><circle cx="1062" cy="256" r="31" transform="rotate(0,1062,256)"/><circle cx="1062" cy="318" r="31" transform="rotate(0,1062,318)"/><circle cx="1062" cy="380" r="31" transform="rotate(0,1062,380)"/><circle cx="1062" cy="442" r="31" transform="rotate(0,1062,442)"/><circle cx="1062" cy="628" r="31" transform="rotate(0,1062,628)"/><circle cx="1062" cy="690" r="31" transform="rotate(0,1062,690)"/><circle cx="1062" cy="814" r="31" transform="rotate(0,1062,814)"/><circle cx="1062" cy="876" r="31" transform="rotate(0,1062,876)"/><circle cx="1062" cy="938" r="31" transform="rotate(0,1062,938)"/><circle cx="1062" cy="1248" r="31" transform="rotate(0,1062,1248)"/><circle cx="1062" cy="1310" r="31" transform="rotate(0,1062,1310)"/><circle cx="1062" cy="1434" r="31" transform="rotate(0,1062,1434)"/><circle cx="1062" cy="1496" r="31" transform="rotate(0,1062,1496)"/><circle cx="1062" cy="1620" r="31" transform="rotate(0,1062,1620)"/><circle cx="1062" cy="1682" r="31" transform="rotate(0,1062,1682)"/><circle cx="1062" cy="1744" r="31" transform="rotate(0,1062,1744)"/><circle cx="1124" cy="132" r="31" transform="rotate(0,1124,132)"/><circle cx="1124" cy="256" r="31" transform="rotate(0,1124,256)"/><circle cx="1124" cy="318" r="31" transform="rotate(0,1124,318)"/><circle cx="1124" cy="380" r="31" transform="rotate(0,1124,380)"/><circle cx="1124" cy="442" r="31" transform="rotate(0,1124,442)"/><circle cx="1124" cy="504" r="31" transform="rotate(0,1124,504)"/><circle cx="1124" cy="628" r="31" transform="rotate(0,1124,628)"/><circle cx="1124" cy="690" r="31" transform="rotate(0,1124,690)"/><circle cx="1124" cy="752" r="31" transform="rotate(0,1124,752)"/><circle cx="1124" cy="814" r="31" transform="rotate(0,1124,814)"/><circle cx="1124" cy="938" r="31" transform="rotate(0,1124,938)"/><circle cx="1124" cy="1062" r="31" transform="rotate(0,1124,1062)"/><circle cx="1124" cy="1558" r="31" transform="rotate(0,1124,1558)"/><circle cx="1124" cy="1682" r="31" transform="rotate(0,1124,1682)"/><circle cx="1124" cy="1868" r="31" transform="rotate(0,1124,1868)"/><circle cx="1186" cy="132" r="31" transform="rotate(0,1186,132)"/><circle cx="1186" cy="256" r="31" transform="rotate(0,1186,256)"/><circle cx="1186" cy="318" r="31" transform="rotate(0,1186,318)"/><circle cx="1186" cy="380" r="31" transform="rotate(0,1186,380)"/><circle cx="1186" cy="442" r="31" transform="rotate(0,1186,442)"/><circle cx="1186" cy="566" r="31" transform="rotate(0,1186,566)"/><circle cx="1186" cy="690" r="31" transform="rotate(0,1186,690)"/><circle cx="1186" cy="752" r="31" transform="rotate(0,1186,752)"/><circle cx="1186" cy="1000" r="31" transform="rotate(0,1186,1000)"/><circle cx="1186" cy="1186" r="31" transform="rotate(0,1186,1186)"/><circle cx="1186" cy="1310" r="31" transform="rotate(0,1186,1310)"/><circle cx="1186" cy="1434" r="31" transform="rotate(0,1186,1434)"/><circle cx="1186" cy="1620" r="31" transform="rotate(0,1186,1620)"/><circle cx="1186" cy="1682" r="31" transform="rotate(0,1186,1682)"/><circle cx="1186" cy="1744" r="31" transform="rotate(0,1186,1744)"/><circle cx="1248" cy="132" r="31" transform="rotate(0,1248,132)"/><circle cx="1248" cy="194" r="31" transform="rotate(0,1248,194)"/><circle cx="1248" cy="318" r="31" transform="rotate(0,1248,318)"/><circle cx="1248" cy="380" r="31" transform="rotate(0,1248,380)"/><circle cx="1248" cy="504" r="31" transform="rotate(0,1248,504)"/><circle cx="1248" cy="566" r="31" transform="rotate(0,1248,566)"/><circle cx="1248" cy="690" r="31" transform="rotate(0,1248,690)"/><circle cx="1248" cy="1000" r="31" transform="rotate(0,1248,1000)"/><circle cx="1248" cy="1124" r="31" transform="rotate(0,1248,1124)"/><circle cx="1248" cy="1186" r="31" transform="rotate(0,1248,1186)"/><circle cx="1248" cy="1248" r="31" transform="rotate(0,1248,1248)"/><circle cx="1248" cy="1310" r="31" transform="rotate(0,1248,1310)"/><circle cx="1248" cy="1372" r="31" transform="rotate(0,1248,1372)"/><circle cx="1248" cy="1868" r="31" transform="rotate(0,1248,1868)"/><circle cx="1310" cy="132" r="31" transform="rotate(0,1310,132)"/><circle cx="1310" cy="194" r="31" transform="rotate(0,1310,194)"/><circle cx="1310" cy="256" r="31" transform="rotate(0,1310,256)"/><circle cx="1310" cy="318" r="31" transform="rotate(0,1310,318)"/><circle cx="1310" cy="442" r="31" transform="rotate(0,1310,442)"/><circle cx="1310" cy="628" r="31" transform="rotate(0,1310,628)"/><circle cx="1310" cy="876" r="31" transform="rotate(0,1310,876)"/><circle cx="1310" cy="938" r="31" transform="rotate(0,1310,938)"/><circle cx="1310" cy="1000" r="31" transform="rotate(0,1310,1000)"/><circle cx="1310" cy="1062" r="31" transform="rotate(0,1310,1062)"/><circle cx="1310" cy="1124" r="31" transform="rotate(0,1310,1124)"/><circle cx="1310" cy="1310" r="31" transform="rotate(0,1310,1310)"/><circle cx="1310" cy="1434" r="31" transform="rotate(0,1310,1434)"/><circle cx="1310" cy="1496" r="31" transform="rotate(0,1310,1496)"/><circle cx="1310" cy="1558" r="31" transform="rotate(0,1310,1558)"/><circle cx="1310" cy="1744" r="31" transform="rotate(0,1310,1744)"/><circle cx="1310" cy="1806" r="31" transform="rotate(0,1310,1806)"/><circle cx="1310" cy="1868" r="31" transform="rotate(0,1310,1868)"/><circle cx="1372" cy="132" r="31" transform="rotate(0,1372,132)"/><circle cx="1372" cy="194" r="31" transform="rotate(0,1372,194)"/><circle cx="1372" cy="504" r="31" transform="rotate(0,1372,504)"/><circle cx="1372" cy="814" r="31" transform="rotate(0,1372,814)"/><circle cx="1372" cy="876" r="31" transform="rotate(0,1372,876)"/><circle cx="1372" cy="938" r="31" transform="rotate(0,1372,938)"/><circle cx="1372" cy="1000" r="31" transform="rotate(0,1372,1000)"/><circle cx="1372" cy="1186" r="31" transform="rotate(0,1372,1186)"/><circle cx="1372" cy="1310" r="31" transform="rotate(0,1372,1310)"/><circle cx="1372" cy="1372" r="31" transform="rotate(0,1372,1372)"/><circle cx="1372" cy="1434" r="31" transform="rotate(0,1372,1434)"/><circle cx="1372" cy="1496" r="31" transform="rotate(0,1372,1496)"/><circle cx="1372" cy="1558" r="31" transform="rotate(0,1372,1558)"/><circle cx="1372" cy="1620" r="31" transform="rotate(0,1372,1620)"/><circle cx="1372" cy="1682" r="31" transform="rotate(0,1372,1682)"/><circle cx="1372" cy="1744" r="31" transform="rotate(0,1372,1744)"/><circle cx="1434" cy="628" r="31" transform="rotate(0,1434,628)"/><circle cx="1434" cy="690" r="31" transform="rotate(0,1434,690)"/><circle cx="1434" cy="752" r="31" transform="rotate(0,1434,752)"/><circle cx="1434" cy="876" r="31" transform="rotate(0,1434,876)"/><circle cx="1434" cy="938" r="31" transform="rotate(0,1434,938)"/><circle cx="1434" cy="1062" r="31" transform="rotate(0,1434,1062)"/><circle cx="1434" cy="1310" r="31" transform="rotate(0,1434,1310)"/><circle cx="1434" cy="1372" r="31" transform="rotate(0,1434,1372)"/><circle cx="1434" cy="1620" r="31" transform="rotate(0,1434,1620)"/><circle cx="1434" cy="1682" r="31" transform="rotate(0,1434,1682)"/><circle cx="1434" cy="1744" r="31" transform="rotate(0,1434,1744)"/><circle cx="1496" cy="690" r="31" transform="rotate(0,1496,690)"/><circle cx="1496" cy="752" r="31" transform="rotate(0,1496,752)"/><circle cx="1496" cy="876" r="31" transform="rotate(0,1496,876)"/><circle cx="1496" cy="938" r="31" transform="rotate(0,1496,938)"/><circle cx="1496" cy="1000" r="31" transform="rotate(0,1496,1000)"/><circle cx="1496" cy="1062" r="31" transform="rotate(0,1496,1062)"/><circle cx="1496" cy="1186" r="31" transform="rotate(0,1496,1186)"/><circle cx="1496" cy="1248" r="31" transform="rotate(0,1496,1248)"/><circle cx="1496" cy="1310" r="31" transform="rotate(0,1496,1310)"/><circle cx="1496" cy="1372" r="31" transform="rotate(0,1496,1372)"/><circle cx="1496" cy="1496" r="31" transform="rotate(0,1496,1496)"/><circle cx="1496" cy="1620" r="31" transform="rotate(0,1496,1620)"/><circle cx="1496" cy="1744" r="31" transform="rotate(0,1496,1744)"/><circle cx="1496" cy="1806" r="31" transform="rotate(0,1496,1806)"/><circle cx="1558" cy="628" r="31" transform="rotate(0,1558,628)"/><circle cx="1558" cy="690" r="31" transform="rotate(0,1558,690)"/><circle cx="1558" cy="876" r="31" transform="rotate(0,1558,876)"/><circle cx="1558" cy="938" r="31" transform="rotate(0,1558,938)"/><circle cx="1558" cy="1000" r="31" transform="rotate(0,1558,1000)"/><circle cx="1558" cy="1062" r="31" transform="rotate(0,1558,1062)"/><circle cx="1558" cy="1186" r="31" transform="rotate(0,1558,1186)"/><circle cx="1558" cy="1248" r="31" transform="rotate(0,1558,1248)"/><circle cx="1558" cy="1310" r="31" transform="rotate(0,1558,1310)"/><circle cx="1558" cy="1372" r="31" transform="rotate(0,1558,1372)"/><circle cx="1558" cy="1620" r="31" transform="rotate(0,1558,1620)"/><circle cx="1558" cy="1682" r="31" transform="rotate(0,1558,1682)"/><circle cx="1558" cy="1806" r="31" transform="rotate(0,1558,1806)"/><circle cx="1558" cy="1868" r="31" transform="rotate(0,1558,1868)"/><circle cx="1620" cy="628" r="31" transform="rotate(0,1620,628)"/><circle cx="1620" cy="752" r="31" transform="rotate(0,1620,752)"/><circle cx="1620" cy="814" r="31" transform="rotate(0,1620,814)"/><circle cx="1620" cy="876" r="31" transform="rotate(0,1620,876)"/><circle cx="1620" cy="938" r="31" transform="rotate(0,1620,938)"/><circle cx="1620" cy="1000" r="31" transform="rotate(0,1620,1000)"/><circle cx="1620" cy="1062" r="31" transform="rotate(0,1620,1062)"/><circle cx="1620" cy="1124" r="31" transform="rotate(0,1620,1124)"/><circle cx="1620" cy="1186" r="31" transform="rotate(0,1620,1186)"/><circle cx="1620" cy="1310" r="31" transform="rotate(0,1620,1310)"/><circle cx="1620" cy="1372" r="31" transform="rotate(0,1620,1372)"/><circle cx="1620" cy="1434" r="31" transform="rotate(0,1620,1434)"/><circle cx="1620" cy="1496" r="31" transform="rotate(0,1620,1496)"/><circle cx="1620" cy="1558" r="31" transform="rotate(0,1620,1558)"/><circle cx="1620" cy="1620" r="31" transform="rotate(0,1620,1620)"/><circle cx="1620" cy="1806" r="31" transform="rotate(0,1620,1806)"/><circle cx="1682" cy="628" r="31" transform="rotate(0,1682,628)"/><circle cx="1682" cy="690" r="31" transform="rotate(0,1682,690)"/><circle cx="1682" cy="814" r="31" transform="rotate(0,1682,814)"/><circle cx="1682" cy="1248" r="31" transform="rotate(0,1682,1248)"/><circle cx="1682" cy="1558" r="31" transform="rotate(0,1682,1558)"/><circle cx="1682" cy="1806" r="31" transform="rotate(0,1682,1806)"/><circle cx="1744" cy="752" r="31" transform="rotate(0,1744,752)"/><circle cx="1744" cy="938" r="31" transform="rotate(0,1744,938)"/><circle cx="1744" cy="1062" r="31" transform="rotate(0,1744,1062)"/><circle cx="1744" cy="1124" r="31" transform="rotate(0,1744,1124)"/><circle cx="1744" cy="1186" r="31" transform="rotate(0,1744,1186)"/><circle cx="1744" cy="1248" r="31" transform="rotate(0,1744,1248)"/><circle cx="1744" cy="1372" r="31" transform="rotate(0,1744,1372)"/><circle cx="1744" cy="1434" r="31" transform="rotate(0,1744,1434)"/><circle cx="1744" cy="1558" r="31" transform="rotate(0,1744,1558)"/><circle cx="1744" cy="1620" r="31" transform="rotate(0,1744,1620)"/><circle cx="1744" cy="1806" r="31" transform="rotate(0,1744,1806)"/><circle cx="1744" cy="1868" r="31" transform="rotate(0,1744,1868)"/><circle cx="1806" cy="628" r="31" transform="rotate(0,1806,628)"/><circle cx="1806" cy="814" r="31" transform="rotate(0,1806,814)"/><circle cx="1806" cy="938" r="31" transform="rotate(0,1806,938)"/><circle cx="1806" cy="1000" r="31" transform="rotate(0,1806,1000)"/><circle cx="1806" cy="1062" r="31" transform="rotate(0,1806,1062)"/><circle cx="1806" cy="1124" r="31" transform="rotate(0,1806,1124)"/><circle cx="1806" cy="1248" r="31" transform="rotate(0,1806,1248)"/><circle cx="1806" cy="1310" r="31" transform="rotate(0,1806,1310)"/><circle cx="1806" cy="1496" r="31" transform="rotate(0,1806,1496)"/><circle cx="1806" cy="1620" r="31" transform="rotate(0,1806,1620)"/><circle cx="1806" cy="1744" r="31" transform="rotate(0,1806,1744)"/><circle cx="1806" cy="1868" r="31" transform="rotate(0,1806,1868)"/><circle cx="1868" cy="752" r="31" transform="rotate(0,1868,752)"/><circle cx="1868" cy="814" r="31" transform="rotate(0,1868,814)"/><circle cx="1868" cy="1310" r="31" transform="rotate(0,1868,1310)"/><circle cx="1868" cy="1372" r="31" transform="rotate(0,1868,1372)"/><circle cx="1868" cy="1496" r="31" transform="rotate(0,1868,1496)"/><circle cx="1868" cy="1558" r="31" transform="rotate(0,1868,1558)"/><circle cx="1868" cy="1620" r="31" transform="rotate(0,1868,1620)"/></clipPath><clipPath id="clip-path-corners-square-color-0-0"><circle cx="132" cy="132" r="31" transform="rotate(0,132,132)"/><circle cx="132" cy="194" r="31" transform="rotate(0,132,194)"/><circle cx="132" cy="256" r="31" transform="rotate(0,132,256)"/><circle cx="132" cy="318" r="31" transform="rotate(0,132,318)"/><circle cx="132" cy="380" r="31" transform="rotate(0,132,380)"/><circle cx="132" cy="442" r="31" transform="rotate(0,132,442)"/><circle cx="132" cy="504" r="31" transform="rotate(0,132,504)"/><circle cx="194" cy="132" r="31" transform="rotate(0,194,132)"/><circle cx="194" cy="504" r="31" transform="rotate(0,194,504)"/><circle cx="256" cy="132" r="31" transform="rotate(0,256,132)"/><circle cx="256" cy="504" r="31" transform="rotate(0,256,504)"/><circle cx="318" cy="132" r="31" transform="rotate(0,318,132)"/><circle cx="318" cy="504" r="31" transform="rotate(0,318,504)"/><circle cx="380" cy="132" r="31" transform="rotate(0,380,132)"/><circle cx="380" cy="504" r="31" transform="rotate(0,380,504)"/><circle cx="442" cy="132" r="31" transform="rotate(0,442,132)"/><circle cx="442" cy="504" r="31" transform="rotate(0,442,504)"/><circle cx="504" cy="132" r="31" transform="rotate(0,504,132)"/><circle cx="504" cy="194" r="31" transform="rotate(0,504,194)"/><circle cx="504" cy="256" r="31" transform="rotate(0,504,256)"/><circle cx="504" cy="318" r="31" transform="rotate(0,504,318)"/><circle cx="504" cy="380" r="31" transform="rotate(0,504,380)"/><circle cx="504" cy="442" r="31" transform="rotate(0,504,442)"/><circle cx="504" cy="504" r="31" transform="rotate(0,504,504)"/></clipPath><clipPath id="clip-path-corners-dot-color-0-0"><circle cx="256" cy="256" r="31" transform="rotate(0,256,256)"/><circle cx="256" cy="318" r="31" transform="rotate(0,256,318)"/><circle cx="256" cy="380" r="31" transform="rotate(0,256,380)"/><circle cx="318" cy="256" r="31" transform="rotate(0,318,256)"/><circle cx="318" cy="318" r="31" transform="rotate(0,318,318)"/><circle cx="318" cy="380" r="31" transform="rotate(0,318,380)"/><circle cx="380" cy="256" r="31" transform="rotate(0,380,256)"/><circle cx="380" cy="318" r="31" transform="rotate(0,380,318)"/><circle cx="380" cy="380" r="31" transform="rotate(0,380,380)"/></clipPath><clipPath id="clip-path-corners-square-color-1-0"><circle cx="1496" cy="132" r="31" transform="rotate(0,1496,132)"/><circle cx="1496" cy="194" r="31" transform="rotate(0,1496,194)"/><circle cx="1496" cy="256" r="31" transform="rotate(0,1496,256)"/><circle cx="1496" cy="318" r="31" transform="rotate(0,1496,318)"/><circle cx="1496" cy="380" r="31" transform="rotate(0,1496,380)"/><circle cx="1496" cy="442" r="31" transform="rotate(0,1496,442)"/><circle cx="1496" cy="504" r="31" transform="rotate(0,1496,504)"/><circle cx="1558" cy="132" r="31" transform="rotate(0,1558,132)"/><circle cx="1558" cy="504" r="31" transform="rotate(0,1558,504)"/><circle cx="1620" cy="132" r="31" transform="rotate(0,1620,132)"/><circle cx="1620" cy="504" r="31" transform="rotate(0,1620,504)"/><circle cx="1682" cy="132" r="31" transform="rotate(0,1682,132)"/><circle cx="1682" cy="504" r="31" transform="rotate(0,1682,504)"/><circle cx="1744" cy="132" r="31" transform="rotate(0,1744,132)"/><circle cx="1744" cy="504" r="31" transform="rotate(0,1744,504)"/><circle cx="1806" cy="132" r="31" transform="rotate(0,1806,132)"/><circle cx="1806" cy="504" r="31" transform="rotate(0,1806,504)"/><circle cx="1868" cy="132" r="31" transform="rotate(0,1868,132)"/><circle cx="1868" cy="194" r="31" transform="rotate(0,1868,194)"/><circle cx="1868" cy="256" r="31" transform="rotate(0,1868,256)"/><circle cx="1868" cy="318" r="31" transform="rotate(0,1868,318)"/><circle cx="1868" cy="380" r="31" transform="rotate(0,1868,380)"/><circle cx="1868" cy="442" r="31" transform="rotate(0,1868,442)"/><circle cx="1868" cy="504" r="31" transform="rotate(0,1868,504)"/></clipPath><clipPath id="clip-path-corners-dot-color-1-0"><circle cx="1620" cy="256" r="31" transform="rotate(0,1620,256)"/><circle cx="1620" cy="318" r="31" transform="rotate(0,1620,318)"/><circle cx="1620" cy="380" r="31" transform="rotate(0,1620,380)"/><circle cx="1682" cy="256" r="31" transform="rotate(0,1682,256)"/><circle cx="1682" cy="318" r="31" transform="rotate(0,1682,318)"/><circle cx="1682" cy="380" r="31" transform="rotate(0,1682,380)"/><circle cx="1744" cy="256" r="31" transform="rotate(0,1744,256)"/><circle cx="1744" cy="318" r="31" transform="rotate(0,1744,318)"/><circle cx="1744" cy="380" r="31" transform="rotate(0,1744,380)"/></clipPath><clipPath id="clip-path-corners-square-color-0-1"><circle cx="132" cy="1496" r="31" transform="rotate(0,132,1496)"/><circle cx="132" cy="1558" r="31" transform="rotate(0,132,1558)"/><circle cx="132" cy="1620" r="31" transform="rotate(0,132,1620)"/><circle cx="132" cy="1682" r="31" transform="rotate(0,132,1682)"/><circle cx="132" cy="1744" r="31" transform="rotate(0,132,1744)"/><circle cx="132" cy="1806" r="31" transform="rotate(0,132,1806)"/><circle cx="132" cy="1868" r="31" transform="rotate(0,132,1868)"/><circle cx="194" cy="1496" r="31" transform="rotate(0,194,1496)"/><circle cx="194" cy="1868" r="31" transform="rotate(0,194,1868)"/><circle cx="256" cy="1496" r="31" transform="rotate(0,256,1496)"/><circle cx="256" cy="1868" r="31" transform="rotate(0,256,1868)"/><circle cx="318" cy="1496" r="31" transform="rotate(0,318,1496)"/><circle cx="318" cy="1868" r="31" transform="rotate(0,318,1868)"/><circle cx="380" cy="1496" r="31" transform="rotate(0,380,1496)"/><circle cx="380" cy="1868" r="31" transform="rotate(0,380,1868)"/><circle cx="442" cy="1496" r="31" transform="rotate(0,442,1496)"/><circle cx="442" cy="1868" r="31" transform="rotate(0,442,1868)"/><circle cx="504" cy="1496" r="31" transform="rotate(0,504,1496)"/><circle cx="504" cy="1558" r="31" transform="rotate(0,504,1558)"/><circle cx="504" cy="1620" r="31" transform="rotate(0,504,1620)"/><circle cx="504" cy="1682" r="31" transform="rotate(0,504,1682)"/><circle cx="504" cy="1744" r="31" transform="rotate(0,504,1744)"/><circle cx="504" cy="1806" r="31" transform="rotate(0,504,1806)"/><circle cx="504" cy="1868" r="31" transform="rotate(0,504,1868)"/></clipPath><clipPath id="clip-path-corners-dot-color-0-1"><circle cx="256" cy="1620" r="31" transform="rotate(0,256,1620)"/><circle cx="256" cy="1682" r="31" transform="rotate(0,256,1682)"/><circle cx="256" cy="1744" r="31" transform="rotate(0,256,1744)"/><circle cx="318" cy="1620" r="31" transform="rotate(0,318,1620)"/><circle cx="318" cy="1682" r="31" transform="rotate(0,318,1682)"/><circle cx="318" cy="1744" r="31" transform="rotate(0,318,1744)"/><circle cx="380" cy="1620" r="31" transform="rotate(0,380,1620)"/><circle cx="380" cy="1682" r="31" transform="rotate(0,380,1682)"/><circle cx="380" cy="1744" r="31" transform="rotate(0,380,1744)"/></clipPath></defs><rect x="0" y="0" height="2000" width="2000" clip-path="url('#clip-path-background-color')" fill="#ffffff"/><rect x="101" y="101" height="1798" width="1798" clip-path="url('#clip-path-dot-color')" fill="#29526b"/><rect x="101" y="101" height="434" width="434" clip-path="url('#clip-path-corners-square-color-0-0')" fill="#000000"/><rect x="225" y="225" height="186" width="186" clip-path="url('#clip-path-corners-dot-color-0-0')" fill="#000000"/><rect x="1465" y="101" height="434" width="434" clip-path="url('#clip-path-corners-square-color-1-0')" fill="#000000"/><rect x="1589" y="225" height="186" width="186" clip-path="url('#clip-path-corners-dot-color-1-0')" fill="#000000"/><rect x="101" y="1465" height="434" width="434" clip-path="url('#clip-path-corners-square-color-0-1')" fill="#000000"/><rect x="225" y="1589" height="186" width="186" clip-path="url('#clip-path-corners-dot-color-0-1')" fill="#000000"/></svg>